<svg version="1.2" baseProfile="tiny-ps" xmlns="http://www.w3.org/2000/svg" viewBox="0 0 300 80" width="300" height="80">
	<title>name</title>
	<style>
		tspan { white-space:pre }
	</style>
	<path id="Draxel" fill="#4dc4ff" aria-label="Draxel"  d="m30.58 75h-19.79q-6.94 0-6.94-6.94v-58.04q0-6.94 6.94-6.94h19.79q18.05 0 27.85 9.28q9.89 9.28 9.89 26.62q0 17.24-9.89 26.62q-9.79 9.38-27.85 9.38zm-13.67-61.1v50.29h12.85q24.89 0 24.89-25.19q0-25.09-24.89-25.09h-12.85z" />
	<path id="Draxel" fill="#ff616e" aria-label="Draxel"  d="m83.82 75.82q-6.53 0-6.53-6.53v-38.56q0-6.43 6.22-6.43q6.22 0 6.22 6.43v3.16q3.67-8.77 15.71-9.79q4.39-0.51 4.9 5q0.51 5.41-5.3 6.02l-2.24 0.2q-12.55 1.22-12.55 12.85v21.11q0 6.53-6.43 6.53z" />
	<path id="Draxel" fill="#a5e075" aria-label="Draxel"  d="m130.13 76.02q-5.41 0-9.69-2.04q-4.18-2.14-6.63-5.71q-2.35-3.57-2.35-8.06q0-5.51 2.86-8.67q2.86-3.26 9.28-4.69q6.43-1.43 17.24-1.43h3.57v-2.14q0-5.1-2.24-7.34q-2.24-2.24-7.55-2.24q-2.96 0-6.43 0.71q-3.37 0.71-7.14 2.45q-2.45 1.12-4.08 0.31q-1.63-0.92-2.24-2.75q-0.51-1.94 0.2-3.88q0.82-1.94 3.16-2.86q4.69-1.94 8.98-2.75q4.39-0.82 7.96-0.82q10.91 0 16.22 5.1q5.3 5 5.3 15.61v24.48q0 6.53-5.92 6.53q-6.02 0-6.02-6.53v-2.24q-1.73 4.18-5.51 6.63q-3.77 2.35-8.98 2.35zm2.65-8.77q5 0 8.26-3.47q3.37-3.47 3.37-8.77v-2.24h-3.47q-9.59 0-13.36 1.53q-3.67 1.43-3.67 5.3q0 3.37 2.35 5.51q2.35 2.14 6.53 2.14z" />
	<path id="Draxel" fill="#de73ff" aria-label="Draxel"  d="m169.91 75.51q-2.24 0-3.77-1.22q-1.43-1.33-1.53-3.37q0-2.04 1.73-4.28l14.08-17.34l-13.06-16.12q-1.84-2.24-1.73-4.28q0.1-2.04 1.53-3.26q1.53-1.33 3.77-1.33q2.35 0 3.88 0.82q1.63 0.82 2.96 2.55l10 12.85l10.1-12.85q1.43-1.73 2.96-2.55q1.53-0.82 3.77-0.82q2.35 0 3.77 1.33q1.43 1.33 1.43 3.37q0.1 2.04-1.73 4.28l-13.06 16.01l14.18 17.34q1.84 2.14 1.73 4.18q-0.1 2.04-1.63 3.37q-1.43 1.33-3.77 1.33q-4.08 0-6.73-3.37l-11.12-13.97l-11.02 13.97q-1.33 1.63-2.86 2.55q-1.53 0.82-3.88 0.82z" />
	<path id="Draxel" fill="#4cd1e0" aria-label="Draxel"  d="m242.33 76.02q-8.47 0-14.59-3.16q-6.12-3.16-9.49-8.98q-3.26-5.81-3.26-13.77q0-7.75 3.16-13.57q3.26-5.81 8.87-9.08q5.71-3.37 12.95-3.37q10.61 0 16.73 6.73q6.22 6.73 6.22 18.36q0 3.77-4.9 3.77h-30.8q1.43 13.36 15.3 13.36q2.65 0 5.92-0.61q3.37-0.71 6.32-2.35q2.65-1.53 4.49-0.92q1.84 0.51 2.55 2.14q0.82 1.63 0.2 3.67q-0.51 1.94-2.86 3.37q-3.57 2.24-8.26 3.37q-4.59 1.02-8.57 1.02zm-1.84-43.25q-5.61 0-9.08 3.47q-3.47 3.47-4.18 9.38h25.09q-0.41-6.22-3.47-9.49q-2.96-3.37-8.36-3.37z" />
	<path id="Draxel" fill="#f0a45d" aria-label="Draxel"  d="m287.01 76.02q-17.03 0-17.03-19.07v-48.25q0-6.43 6.32-6.43q6.43 0 6.43 6.43v47.63q0 9.18 7.65 9.18q0.82 0 1.53 0q0.71-0.1 1.43-0.2q1.43-0.2 1.94 0.82q0.51 0.92 0.51 3.88q0 2.55-1.02 3.98q-1.02 1.43-3.37 1.73q-2.14 0.31-4.39 0.31z" />
</svg>