<svg version="1.2" baseProfile="tiny-ps" xmlns="http://www.w3.org/2000/svg" viewBox="0 0 160 160" width="160" height="160">
	<path id="{dx}" fill="#4dc4ff" aria-label="{dx}"  d="m36.84 127.26h-7.6q-6.21 0-9.63-3.32q-3.32-3.42-3.32-9.63v-20.76q0-4.39-1.61-6.31q-1.5-2.03-5.56-2.14q-2.03-0.11-3.21-1.61q-1.18-1.5-1.18-3.64q0-2.14 1.18-3.53q1.18-1.5 3.21-1.61q4.07-0.21 5.56-2.14q1.61-2.03 1.61-6.31v-20.76q0-6.21 3.32-9.52q3.42-3.42 9.63-3.42h7.6q2.46 0 3.96 1.5q1.6 1.39 1.6 3.53q0 2.14-1.28 3.64q-1.28 1.39-3.42 1.39h-3.75q-4.28 0-4.28 4.71v20.54q0 4.39-2.46 7.81q-2.35 3.42-5.89 4.28q3.53 0.75 5.89 4.17q2.46 3.42 2.46 7.81v20.54q0 4.71 4.28 4.71h3.75q2.14 0 3.42 1.5q1.28 1.39 1.28 3.53q0 2.14-1.6 3.64q-1.5 1.39-3.96 1.39z" />
	<path id="{dx}" fill="#d7dae0" aria-label="{dx}"  d="m52.79 109.07q-6.85 0-12.09-3.32q-5.14-3.32-8.02-9.42q-2.89-6.21-2.89-14.55q0-8.45 2.89-14.44q2.89-6.1 8.02-9.42q5.24-3.32 12.09-3.32q5.56 0 10.06 2.46q4.49 2.46 6.74 6.53v-25.14q0-6.74 6.63-6.74q6.74 0 6.74 6.74v63.56q0 6.85-6.63 6.85q-6.63 0-6.63-6.85v-2.25q-2.25 4.28-6.74 6.85q-4.49 2.46-10.16 2.46zm3.74-10.16q5.99 0 9.63-4.28q3.64-4.39 3.64-12.84q0-8.56-3.64-12.73q-3.64-4.28-9.63-4.28q-5.99 0-9.63 4.28q-3.64 4.17-3.64 12.73q0 8.45 3.64 12.84q3.64 4.28 9.63 4.28zm27.93 9.63q-2.35 0-3.96-1.28q-1.5-1.39-1.61-3.53q0-2.14 1.82-4.49l14.77-18.19l-13.7-16.91q-1.93-2.35-1.82-4.49q0.11-2.14 1.6-3.42q1.61-1.39 3.96-1.39q2.46 0 4.07 0.86q1.71 0.86 3.1 2.68l10.49 13.48l10.59-13.48q1.5-1.82 3.1-2.68q1.61-0.86 3.96-0.86q2.46 0 3.96 1.39q1.5 1.39 1.5 3.53q0.11 2.14-1.82 4.49l-13.7 16.8l14.87 18.19q1.93 2.25 1.82 4.39q-0.11 2.14-1.71 3.53q-1.5 1.39-3.96 1.39q-4.28 0-7.06-3.53l-11.66-14.66l-11.56 14.66q-1.39 1.71-3 2.67q-1.61 0.86-4.07 0.86z" />
	<path id="{dx}" fill="#4dc4ff" aria-label="{dx}"  d="m129.83 127.26h-7.6q-2.35 0-3.96-1.39q-1.61-1.5-1.61-3.64q0-2.14 1.28-3.53q1.28-1.5 3.42-1.5h3.75q4.28 0 4.28-4.71v-20.54q0-4.39 2.35-7.81q2.46-3.42 5.99-4.28q-3.53-0.75-5.99-4.17q-2.35-3.42-2.35-7.81v-20.54q0-4.71-4.28-4.71h-3.75q-2.14 0-3.42-1.39q-1.28-1.5-1.28-3.64q0-2.14 1.61-3.53q1.61-1.5 3.96-1.5h7.6q6.21 0 9.52 3.42q3.42 3.32 3.42 9.52v20.76q0 4.28 1.6 6.31q1.61 1.93 5.56 2.14q2.14 0.11 3.21 1.61q1.18 1.5 1.18 3.64q0 2.03-1.18 3.53q-1.07 1.5-3.21 1.61q-3.96 0.11-5.56 2.14q-1.6 1.93-1.6 6.31v20.76q0 6.21-3.42 9.63q-3.32 3.32-9.52 3.32z" />
</svg>
