<svg version="1.2" baseProfile="tiny-ps" xmlns="http://www.w3.org/2000/svg" viewBox="0 0 160 160" width="160" height="160">
	<title>logo_light-svg</title>
	<style>
		tspan { white-space:pre }
		.s0 { fill: #d7dae0 } 
		.s1 { fill: #4dc4ff } 
		.s2 { fill: #abb2bf } 
	</style>
	<path id="Shape 1" class="s0" d="m0 0h160v160h-160v-160z" />
	<path id="{dx}" class="s1" d="m36.84 127.26h-7.6c-4.14 0-7.35-1.11-9.63-3.32c-2.21-2.28-3.32-5.49-3.32-9.63v-20.76c0-2.93-0.54-5.03-1.61-6.31c-1-1.35-2.85-2.07-5.56-2.14c-1.35-0.07-2.42-0.61-3.21-1.61c-0.79-1-1.18-2.21-1.18-3.64c0-1.43 0.39-2.6 1.18-3.53c0.79-1 1.86-1.54 3.21-1.61c2.71-0.14 4.57-0.85 5.56-2.14c1.07-1.35 1.61-3.46 1.61-6.31v-20.76c0-4.14 1.11-7.31 3.32-9.52c2.28-2.28 5.49-3.42 9.63-3.42h7.6c1.64 0 2.96 0.5 3.96 1.5c1.07 0.93 1.6 2.1 1.6 3.53c0 1.43-0.43 2.64-1.28 3.64c-0.85 0.93-1.99 1.39-3.42 1.39h-3.75c-2.85 0-4.28 1.57-4.28 4.71v20.54c0 2.93-0.82 5.53-2.46 7.81c-1.57 2.28-3.53 3.71-5.89 4.28c2.35 0.5 4.32 1.89 5.89 4.17c1.64 2.28 2.46 4.88 2.46 7.81v20.54c0 3.14 1.43 4.71 4.28 4.71h3.75c1.43 0 2.57 0.5 3.42 1.5c0.85 0.93 1.28 2.1 1.28 3.53c0 1.43-0.53 2.64-1.6 3.64c-1 0.93-2.32 1.39-3.96 1.39v0.01z" />
	<path id="{dx}" fill-rule="evenodd" class="s2" d="m52.79 109.07c-4.57 0-8.6-1.11-12.09-3.32c-3.43-2.21-6.1-5.35-8.02-9.42c-1.93-4.14-2.89-8.99-2.89-14.55c0-5.63 0.96-10.45 2.89-14.44c1.93-4.07 4.6-7.21 8.02-9.42c3.49-2.21 7.52-3.32 12.09-3.32c3.71 0 7.06 0.82 10.06 2.46c2.99 1.64 5.24 3.82 6.74 6.53v-25.14c0-4.49 2.21-6.74 6.63-6.74c4.49 0 6.74 2.25 6.74 6.74l0 16.89c0.76-0.34 1.62-0.5 2.56-0.5c1.64 0 3 0.29 4.07 0.86c1.14 0.57 2.17 1.47 3.1 2.68l10.49 13.48l10.59-13.48c1-1.21 2.03-2.11 3.1-2.68c1.07-0.57 2.39-0.86 3.96-0.86c1.64 0 2.96 0.46 3.96 1.39c1 0.93 1.5 2.1 1.5 3.53c0.07 1.43-0.53 2.92-1.82 4.49l-13.7 16.8l14.87 18.19c1.29 1.5 1.89 2.96 1.82 4.39c-0.07 1.43-0.64 2.6-1.71 3.53c-1 0.93-2.32 1.39-3.96 1.39c-2.85 0-5.21-1.18-7.06-3.53l-11.66-14.66l-11.56 14.66c-0.93 1.14-1.93 2.03-3 2.67c-1.07 0.57-2.43 0.86-4.07 0.86l0.02-0.01c-1.39 0-2.58-0.33-3.58-1c-1.09 0.88-2.6 1.32-4.55 1.32c-4.42 0-6.63-2.28-6.63-6.85v-2.25c-1.5 2.85-3.75 5.14-6.74 6.85c-2.99 1.64-6.38 2.46-10.16 2.46h-0.01zm13.37-14.44c2.43-2.93 3.64-7.21 3.64-12.84c0-5.71-1.21-9.95-3.64-12.73c-2.43-2.85-5.64-4.28-9.63-4.28c-3.99 0-7.2 1.43-9.63 4.28c-2.43 2.78-3.64 7.02-3.64 12.73c0 5.63 1.21 9.91 3.64 12.84c2.43 2.85 5.64 4.28 9.63 4.28c3.99 0 7.2-1.43 9.63-4.28zm29.32-13.58l-12.52-15.45v30.87l12.52-15.42z" />
	<path id="{dx}" class="s1" d="m129.83 127.26h-7.6c-1.57 0-2.89-0.46-3.96-1.39c-1.07-1-1.61-2.21-1.61-3.64c0-1.43 0.43-2.6 1.28-3.53c0.85-1 1.99-1.5 3.42-1.5h3.75c2.85 0 4.28-1.57 4.28-4.71v-20.54c0-2.93 0.78-5.53 2.35-7.81c1.64-2.28 3.64-3.71 5.99-4.28c-2.35-0.5-4.35-1.89-5.99-4.17c-1.57-2.28-2.35-4.88-2.35-7.81v-20.54c0-3.14-1.43-4.71-4.28-4.71h-3.75c-1.43 0-2.57-0.46-3.42-1.39c-0.85-1-1.28-2.21-1.28-3.64c0-1.43 0.54-2.6 1.61-3.53c1.07-1 2.39-1.5 3.96-1.5h7.6c4.14 0 7.31 1.14 9.52 3.42c2.28 2.21 3.42 5.39 3.42 9.52v20.76c0 2.85 0.53 4.96 1.6 6.31c1.07 1.29 2.93 2 5.56 2.14c1.43 0.07 2.5 0.61 3.21 1.61c0.79 1 1.18 2.21 1.18 3.64c0 1.35-0.39 2.53-1.18 3.53c-0.71 1-1.78 1.54-3.21 1.61c-2.64 0.07-4.49 0.79-5.56 2.14c-1.07 1.29-1.6 3.39-1.6 6.31v20.76c0 4.14-1.14 7.35-3.42 9.63c-2.21 2.21-5.39 3.32-9.52 3.32v-0.01z" />
</svg>